<?xml version="1.0" encoding="UTF-8"?>
<svg id="Camada_2" data-name="Camada 2" xmlns="http://www.w3.org/2000/svg" viewBox="0 0 479.35 935.88">
  <defs>
    <style>
      .cls-1 {
        stroke-width: 5px;
      }

      .cls-1, .cls-2 {
        fill: none;
        stroke: #1d1d1b;
        stroke-miterlimit: 10;
      }

      .cls-2 {
        stroke-width: 2px;
      }

      .cls-3 {
        fill: #1d1d1b;
      }

      .cls-4 {
        fill: #9d9d9d;
      }
    </style>
  </defs>
  <g id="Dimensions">
    <g>
      <path class="cls-4" d="M113.46,1v19.47c0,2.76,2.24,5,5,5h58.39c2.76,0,5-2.24,5-5V1h-68.39Z"/>
      <path class="cls-4" d="M98.01,35.35h86.12s43.06,52,58.12,73.18,37.88,63.06,56,183.06c14.82,62.12,57.41,158.12,62.35,173.18s16.24,48,0,105.88-93.88,91.53-133.41,59.06-88.71-38.12-142.59-17.18c-.71-15.76-5.18-46.59-42.82-150.35s-51.92-224.94,2.04-310.59c19.45-28.55,62.59-66.2,54.2-116.24Z"/>
      <path class="cls-4" d="M76.91,624.84v25.1s68.86,45.65,106.35,8.47v-33.57s-30.12-35.45-106.35,0Z"/>
      <path class="cls-4" d="M80.84,662.65v65.35c0,2.76,2.24,5,5,5h78c2.76,0,5-2.24,5-5v-48.41s-52.71,14.12-88-16.94Z"/>
      <path class="cls-4" d="M175.42,680.53s4.39-4.24,7.84,0c-.08,4.94,0,31.29,0,31.29,0,0-1.49,23.29,10.51,41.65s47.76,79.06,38.59,124.71-30.22,54.35-43.7,57.18c-9.95,0-150.42,1.18-149.24,0s-33.88-5.88-38.82-52.71c-1.88-22.82-1.18-53.41,30.35-99.29,15.53-23.53,33.41-52.71,33.41-64.94v-39.76s5.18-5.41,8,0v40.71s.24,18.82-15.06,40.47-47.29,73.88-47.06,99.29,3.06,57.18,30.35,65.65c14.59,4,148.07,0,148.07,0,0,0,27.7-3.76,36.17-47.29,1.18-17.65,6.59-50.82-40.47-121.65-4.94-9.65-9.18-24.24-9.18-45.18s.24-30.12.24-30.12Z"/>
      <path class="cls-4" d="M14.48,862.65s13.18,35.29,33.18,35.76,139.06,0,139.06,0c0,0,18.59-1.65,32.24-28.24-.71,16.24-4.24,43.06-32,49.65H45.78s-33.41-5.88-31.29-57.18Z"/>
    </g>
    <line class="cls-2" x1="293.66" y1="641.04" x2="479.35" y2="641.04"/>
    <line class="cls-2" x1="186.72" y1="1" x2="479.35" y2="1"/>
    <g>
      <line class="cls-1" x1="433.31" y1="16.09" x2="433.31" y2="625.95"/>
      <path class="cls-3" d="M433.31,1c-2.63,7.1-7.13,15.91-11.89,21.37l11.89-4.3,11.89,4.3c-4.76-5.46-9.26-14.27-11.89-21.37Z"/>
      <path class="cls-3" d="M433.31,641.04c-2.63-7.1-7.13-15.91-11.89-21.37l11.89,4.3,11.89-4.3c-4.76,5.46-9.26,14.27-11.89,21.37Z"/>
    </g>
  </g>
</svg>