<?xml version="1.0" encoding="UTF-8"?>
<svg id="Camada_2" data-name="Camada 2" xmlns="http://www.w3.org/2000/svg" viewBox="0 0 237.42 376.84">
  <defs>
    <style>
      .cls-1 {
        letter-spacing: 0em;
      }

      .cls-2 {
        letter-spacing: -.08em;
      }

      .cls-3 {
        fill: none;
        stroke: #1d1d1b;
        stroke-miterlimit: 10;
      }

      .cls-4 {
        font-family: Gibson-Book, Gibson;
        font-size: 8px;
      }

      .cls-4, .cls-5 {
        fill: #1d1d1b;
      }

      .cls-6 {
        letter-spacing: .01em;
      }

      .cls-7 {
        fill: #9d9d9d;
      }
    </style>
  </defs>
  <g id="Camada_1-2" data-name="Camada 1">
    <g>
      <path class="cls-7" d="M92.2,334.52c1.83-.15,3.91-.31,6.16-.4,7.4-.28,42.65-3.14,61.6-4.68l5.23-.42c15.47-1.25,33.88-3.43,40.49-4.48-2.07-1.55-7.55-3.43-17.78-4.59-10.53-1.2-26.33-.41-28.09-.31-.64.32-3.12,1.53-5.28,2.13-2.28.64-22.72,2.91-33.71,4.13l-2.37.26c-8.45.94-33.42,2.96-38.18,3.34.07.9.15,2.48.1,4.49,3.47,1.19,7.19.89,11.83.53Z"/>
      <path class="cls-7" d="M207.16,325.88c-5.28.96-25.25,3.36-41.84,4.71l-5.24.42c-18.95,1.54-54.23,4.4-61.66,4.68-2.21.08-4.18.24-6.09.39-4.1.32-7.5.6-10.74-.12,1.55,2.8,3.17,8.64-1.33,18.24,2.29,1.47,5.86.73,7.44.4.45-.09,1.14-.27,2.03-.49,2.88-.72,7.7-1.91,11.85-2.29,1.85-.17,6.93-.84,13.36-1.68,12.39-1.62,29.34-3.84,40.6-4.84,19.34-1.72,39.21-5.63,44.84-6.78,8.17-1.68,8.18-4.95,8.19-8.42,0-.26,0-.52,0-.78.04-2.57-1.04-3.28-1.41-3.45Z"/>
      <path class="cls-7" d="M80.24,336.78c-.18,2.4-.57,5.12-1.31,7.87-.09.32-.37.55-.71.57h-.05s-.03,0-.04,0h0c-6.78-.31-13.55-.69-20.32-1.14-6.79-.54-13.61-.8-20.34-1.92-1.12-.19-2.23-.43-3.32-.72-.22,1.19-.08,2.18.45,2.98,1.36,2.08,5.05,2.75,8.47,3.14,9.13.38,21.38,3.01,29.48,4.75,2.75.59,5,1.08,6.26,1.27,4.21-8.96,2.75-14.32,1.42-16.81Z"/>
      <path class="cls-7" d="M73.03,152.06c-.27,1.14-.54,2.29-.81,3.44-4.32,18-9.2,38.41-7.36,114.2.76,22.82,2.9,47.32,13.1,72.22,1.26-6.31.77-12.11.69-12.95-.66-1.65-8.44-21.61-9.54-45.97-1.14-25.2.31-75.17.32-75.67.01-.26.73-26.3,8.73-49.75,8.42-24.67,8.81-42.02,6.71-62-.14-1.23-.22-2.46-.3-3.65-.39-5.62-.78-8.77-4.28-8.67-3.44.11-5.2.24-6.04.3.4,6.56,2.94,50.77-1.22,68.48Z"/>
      <path class="cls-7" d="M57.93,342.36c6.34.48,12.68.88,19.03,1.23-10.67-25.49-12.89-50.55-13.67-73.85-1.85-76,3.06-96.51,7.4-114.6.28-1.15.55-2.29.81-3.44,4.05-17.25,1.56-61.63,1.18-68-2.88.13-5.77.33-8.63.63-3.33.44-7.04.64-9.93,2.42-.84.61-.74,1.64-.71,2.73.08,1.78.05,3.44.04,5.16-.25,16.97-1,34.19-5.85,50.58-4.1,13.92-10.45,27.04-17.66,39.59-.8,1.42-3.06,5.09-3.91,6.57l-5.43,8.61C6.47,222.86-.2,250.18,0,276.96c.4,17.71,4,36.68,15.87,50.43,3.49,4.09,7.55,7.77,12.48,10,4.49,2.12,9.47,3.1,14.41,3.64,5.05.53,10.1.95,15.16,1.34Z"/>
      <path class="cls-7" d="M99.29,51.55c-12.26,7.48-17.62,25.79-18.74,30.16.79,0,1.47.14,2.04.39.76-4.51,4.21-20.14,16.7-30.54Z"/>
      <path class="cls-7" d="M84.02,83.12c1.64,1.83,1.86,5.21,2.11,8.71.08,1.17.16,2.38.3,3.59,1.4,13.32,1.7,25.48-.69,39.38,2.62,1.24,3.98,1.27,13.88,1.53,3.99.1,9.46.24,16.93.51,15.48.56,25.85.72,33.43.84,5.38.08,9.3.14,12.45.31,14.44-11.58,4.83-31.35.3-37.39-3.41-4.55-6.24-11.6-7.59-14.98-.29-.72-.52-1.29-.67-1.65-.19-.43-.45-1.1-.77-1.95-1.26-3.29-3.61-9.4-6.83-13.84-9.77-14.85-19.89-23.27-40.24-19.48-.22.04-.43.09-.65.14-17.91,10.11-21.51,31.16-21.95,34.28ZM113.64,61.34s.02-.05.03-.08c.05-.12,1.26-3,3.68-3.77,1.26-.4,2.58-.16,3.92.7,1.57,1.13,4.95,5.3,2.23,11.22-1.08,2.39-3.32,3.88-5.56,3.88-.58,0-1.16-.1-1.72-.31-2.62-.98-4.68-4.54-2.58-11.64ZM157.02,102.34c-17.79.92-35.84.77-53.59-.67,17.79-1,35.83-.7,53.59.67Z"/>
      <path class="cls-7" d="M116.77,71.52c1.92.72,4.3-.52,5.3-2.75,2.27-4.94-.52-8.44-1.68-9.28-.91-.58-1.77-.75-2.57-.5-1.6.51-2.57,2.57-2.69,2.84-1.78,6.03-.32,8.96,1.64,9.69ZM118.3,60.22c-.41.84-.86,1.55-1.14,2.34-.98,2.41-1.11,4.75-1.3,7.43-1.84-3.17-.92-8.01,2.43-9.77Z"/>
      <path class="cls-7" d="M223.68,221.55c-1.39-2.92-2.6-5.43-3.35-7.31-2.78-7.03-16.14-38.8-25.93-54.45-8.11-12.96-9.4-19.07-10.76-25.54-.24-1.13-.49-2.3-.77-3.52-1.92-8.17-3.53-36.67-3.53-38.41,0-.21-.03-.49-.19-.64-.15-.14-.38-.15-.38-.15-.13,0-2.12.05-4.14.05-.25,4.96-1.47,33.54,2.13,45.82,3.8,12.96,8.74,21.12,16.51,31.63,8.83,11.94,17.15,29.26,25.43,52.98,1.62,4.64,3.14,8.72,4.6,12.67,7.02,18.93,11.26,30.35,8.8,54.78,0,.03-.01.06-.02.09-2.96,13.57-10.59,25.82-22.67,36.46.42.75.74,1.82.72,3.35,0,.25,0,.51,0,.76,0,.54,0,1.09-.04,1.66,27.23-15.44,27.29-41.73,27.33-62.93v-1.43c.05-17.12-8.58-35.12-13.74-45.87Z"/>
      <path class="cls-7" d="M171.23,116.72c1.64,9.42-1.15,17.27-8.07,22.69-.14.1-.31.17-.49.17-.02,0-.03,0-.04,0-2.83-.16-6.32-.23-10.98-.3,2.51,6.33,14.88,39,17.52,74.34.87,20.59,1.49,59.04-4.19,85.57,0,.04-.02.07-.03.1-.14.39-.38.92-.67,1.59-1.46,3.3-4.42,10.04-3.94,17.17,3.46-.17,17.88-.78,27.76.35,10.77,1.23,17.88,3.42,19.67,6.04.18.08.4.2.65.38,11.8-10.39,19.25-22.34,22.14-35.55,2.42-24.04-1.77-35.33-8.71-54.03-1.47-3.95-2.98-8.04-4.61-12.7-8.12-23.24-16.6-40.92-25.21-52.56-7.88-10.66-12.89-18.93-16.76-32.12-3.7-12.62-2.47-40.97-2.19-46.27-.38-.01-.75-.02-1.08-.03-5.09-.11-10.06.72-12.1,1.12,1.2,2.48,2.59,5,4.09,7.01,2.07,2.76,5.92,9.46,7.25,17.06Z"/>
    </g>
  </g>
  <g id="Dimensions">
    <g id="Manual_Dimension" data-name="Manual Dimension">
      <polygon class="cls-5" points="182.12 54.77 181.3 54.75 179.99 27.17 180.81 27.23 182.12 54.77"/>
      <polygon class="cls-5" points="51.2 52.14 49.98 52.11 49.98 18.65 51.18 18.73 51.2 52.14"/>
      <g>
        <path class="cls-5" d="M112.89,0l.61.06,3.51,6.95-.05-1.9-.12-4.72.59.06.2,8.02-.57-.05-3.56-7.04c.01.58.05,1.72.07,2.84l.09,3.91-.6-.05-.19-8.07Z"/>
        <path class="cls-5" d="M118.5,5.85c-.04-1.6.64-2.79,1.74-2.68,1.01.1,1.74,1.24,1.77,2.68,0,.22,0,.45,0,.54l-2.9-.26c.05,1.07.58,1.89,1.36,1.96.49.04.91-.22,1.22-.6l.27.58c-.31.52-.87.81-1.51.76-1.28-.11-1.9-1.51-1.94-2.98ZM120.27,3.91c-.74-.07-1.15.68-1.17,1.52l2.34.22c-.02-.76-.39-1.66-1.17-1.74Z"/>
        <path class="cls-5" d="M122.71,6.24c-.04-1.59.63-2.77,1.71-2.67,1,.1,1.72,1.23,1.76,2.66,0,.22,0,.45,0,.54l-2.86-.26c.05,1.06.58,1.88,1.35,1.95.48.04.89-.22,1.2-.59l.27.57c-.3.51-.85.81-1.49.75-1.26-.11-1.88-1.5-1.92-2.96ZM124.45,4.31c-.73-.07-1.13.67-1.15,1.51l2.31.21c-.02-.76-.39-1.65-1.15-1.72Z"/>
        <path class="cls-5" d="M126.9,1.39l.57.06.14,4.8,1.48-2.12.71.07-1.38,1.89,1.74,3.48-.68-.06-1.43-2.92-.43.59.06,2.17-.57-.05-.22-7.91Z"/>
      </g>
      <g>
        <polygon class="cls-5" points="177.96 27.72 54.19 19.75 54.19 18.14 177.9 26.38 177.96 27.72"/>
        <path class="cls-5" d="M50.58,18.71c1.7.96,3.81,2.55,5.11,4.16l-1.03-3.9,1.01-3.75c-1.29,1.44-3.39,2.75-5.09,3.48Z"/>
        <path class="cls-5" d="M180.4,27.21c-1.13.63-2.52,1.75-3.36,2.97l.56-3.16-.86-3.24c.96,1.34,2.46,2.64,3.65,3.42Z"/>
      </g>
    </g>
    <line class="cls-3" x1="121.97" y1="325.88" x2="136.06" y2="325.88"/>
    <line class="cls-3" x1="121.97" y1="137.01" x2="136.06" y2="137.01"/>
    <text class="cls-4" transform="translate(108.72 233.89)"><tspan x="0" y="0">Height</tspan></text>
    <g>
      <line class="cls-3" x1="136.05" y1="140.02" x2="136.05" y2="322.86"/>
      <path class="cls-5" d="M136.05,137.01c-.53,1.42-1.43,3.18-2.38,4.27l2.38-.86,2.38.86c-.95-1.09-1.85-2.85-2.38-4.27Z"/>
      <path class="cls-5" d="M136.05,325.88c-.53-1.42-1.43-3.18-2.38-4.27l2.38.86,2.38-.86c-.95,1.09-1.85,2.85-2.38,4.27Z"/>
    </g>
    <g id="Manual_Dimension-2" data-name="Manual Dimension">
      <line class="cls-3" x1="186.28" y1="322.7" x2="186.28" y2="297.9"/>
      <line class="cls-3" x1="147.21" y1="322.35" x2="147.21" y2="297.9"/>
      <text class="cls-4" transform="translate(159.34 287.91)"><tspan class="cls-2" x="0" y="0">T</tspan><tspan class="cls-1" x="3.31" y="0">r</tspan><tspan class="cls-6" x="5.82" y="0">e</tspan><tspan x="10.14" y="0">d</tspan></text>
      <g>
        <line class="cls-3" x1="150.23" y1="297.91" x2="183.27" y2="297.91"/>
        <path class="cls-5" d="M147.21,297.91c1.42.53,3.18,1.43,4.27,2.38l-.86-2.38.86-2.38c-1.09.95-2.85,1.85-4.27,2.38Z"/>
        <path class="cls-5" d="M186.28,297.91c-1.42.53-3.18,1.43-4.27,2.38l.86-2.38-.86-2.38c1.09.95,2.85,1.85,4.27,2.38Z"/>
      </g>
    </g>
    <line class="cls-3" x1="210.38" y1="336.53" x2="212.1" y2="349.46"/>
    <line class="cls-3" x1="79.76" y1="353.95" x2="81.49" y2="366.88"/>
    <text class="cls-4" transform="translate(138.7 374.99) rotate(-7.6)"><tspan x="0" y="0">Width</tspan></text>
    <g>
      <line class="cls-3" x1="84.47" y1="366.47" x2="209.11" y2="349.85"/>
      <path class="cls-5" d="M81.48,366.87c1.48.33,3.34.99,4.55,1.79l-1.17-2.24.54-2.47c-.96,1.09-2.58,2.21-3.92,2.92Z"/>
      <path class="cls-5" d="M212.1,349.45c-1.34.71-2.97,1.83-3.92,2.92l.54-2.47-1.17-2.24c1.21.8,3.07,1.46,4.55,1.79Z"/>
    </g>
  </g>
</svg>